<?xml version="1.0" standalone="no"?>
<!DOCTYPE svg PUBLIC "-//W3C//DTD SVG 20010904//EN"
 "http://www.w3.org/TR/2001/REC-SVG-20010904/DTD/svg10.dtd">
<svg version="1.0" xmlns="http://www.w3.org/2000/svg"
 width="409.000000pt" height="136.000000pt" viewBox="0 0 409.000000 136.000000"
 preserveAspectRatio="xMidYMid meet">

<g transform="translate(0.000000,136.000000) scale(0.100000,-0.100000)"
fill="#000000" stroke="none">
<path d="M494 1262 c-5 -4 -27 -14 -49 -21 -22 -8 -51 -22 -64 -32 -30 -24
-55 -25 -47 -2 6 15 4 15 -14 -2 -24 -22 -25 -26 -5 -19 8 4 15 2 15 -4 0 -15
-32 -24 -40 -12 -8 12 -80 -66 -101 -109 -7 -15 -19 -33 -25 -41 -7 -8 -24
-50 -38 -94 -32 -96 -34 -213 -7 -291 l18 -50 5 110 c7 143 39 230 124 337 16
20 24 24 33 15 19 -19 12 -67 -17 -110 -49 -73 -74 -146 -79 -232 -3 -44 -1
-96 4 -115 l9 -34 32 59 c18 32 32 73 32 90 0 38 27 133 46 160 8 11 14 35 14
53 0 28 3 33 18 30 10 -3 31 5 48 18 22 18 25 24 12 24 -10 0 -18 6 -18 14 0
9 19 15 61 19 40 3 72 13 90 26 25 19 29 19 43 6 14 -14 17 -14 36 5 15 15 16
20 5 20 -10 0 -12 6 -8 18 6 15 5 15 -12 -2 -18 -18 -19 -18 -26 0 -4 11 -8
13 -8 6 -1 -8 -6 -10 -13 -6 -7 4 -9 3 -5 -2 9 -10 -153 -64 -168 -56 -5 4
-20 5 -32 4 -24 -4 -63 14 -63 27 0 10 183 177 201 183 8 3 11 8 8 11 -3 4
-10 3 -15 -1z m126 -186 c0 -3 -4 -8 -10 -11 -5 -3 -10 -1 -10 4 0 6 5 11 10
11 6 0 10 -2 10 -4z m-243 -72 c3 -8 1 -20 -5 -26 -15 -15 -43 8 -35 28 7 19
32 18 40 -2z"/>
<path d="M540 1225 c-14 -8 -20 -14 -14 -15 5 0 19 7 30 15 24 18 16 19 -16 0z"/>
<path d="M3010 1100 c-24 -45 29 -80 63 -42 15 16 15 20 1 40 -19 27 -50 28
-64 2z"/>
<path d="M1775 1044 c-8 -20 -15 -42 -15 -48 0 -7 -4 -16 -9 -22 -9 -8 -81
-187 -81 -199 0 -3 14 -5 31 -5 25 0 32 6 45 35 14 35 14 35 79 35 65 0 65 0
79 -35 13 -31 19 -35 50 -35 33 0 35 2 26 23 -12 26 -18 40 -73 177 -43 105
-43 105 -80 108 -33 3 -37 0 -52 -34z m73 -89 c5 -16 13 -38 17 -47 6 -16 1
-18 -39 -18 -25 0 -46 3 -46 6 0 3 10 28 21 55 23 53 30 53 47 4z"/>
<path d="M2020 890 l0 -120 30 0 30 0 0 64 c0 89 12 116 49 116 40 0 51 -23
51 -109 l0 -71 30 0 30 0 0 95 c0 88 -2 96 -25 120 -30 29 -94 35 -119 9 -15
-14 -16 -14 -16 0 0 11 -9 16 -30 16 l-30 0 0 -120z"/>
<path d="M2300 916 c0 -85 3 -98 23 -122 19 -21 31 -26 66 -26 23 1 49 6 57
13 10 8 14 8 14 0 0 -6 14 -11 30 -11 l30 0 0 120 0 120 -30 0 -30 0 0 -73 c0
-79 -16 -117 -50 -117 -34 0 -50 38 -50 117 l0 73 -30 0 -30 0 0 -94z"/>
<path d="M2580 889 l0 -120 33 3 32 3 3 75 c3 83 13 102 51 98 30 -4 39 -27
40 -115 l1 -63 30 0 30 0 0 71 c0 85 11 109 49 109 36 0 41 -13 41 -106 l0
-74 30 0 30 0 0 95 c0 88 -2 98 -25 120 -29 30 -74 33 -116 8 -26 -16 -29 -16
-47 0 -21 20 -64 22 -95 6 -16 -9 -22 -9 -25 0 -2 6 -17 11 -33 11 l-29 0 0
-121z"/>
<path d="M3010 890 l0 -120 29 0 c24 0 29 5 35 31 3 17 6 57 6 89 0 32 -3 72
-6 89 -6 26 -11 31 -35 31 l-29 0 0 -120z"/>
<path d="M3140 890 l0 -120 30 0 30 0 0 64 c0 89 12 116 49 116 40 0 51 -23
51 -109 l0 -71 30 0 30 0 0 95 c0 90 -2 98 -26 122 -22 22 -32 25 -71 20 -25
-3 -49 -11 -54 -18 -7 -11 -9 -10 -9 4 0 12 -8 17 -30 17 l-30 0 0 -120z"/>
<path d="M3462 991 c-40 -26 -55 -62 -49 -120 7 -66 48 -102 117 -103 46 0 57
4 84 31 28 28 31 38 31 91 0 51 -4 63 -27 86 -36 37 -110 44 -156 15z m118
-74 c13 -23 12 -30 -3 -61 -22 -47 -64 -51 -90 -7 -23 39 -21 57 7 86 30 30
63 23 86 -18z"/>
<path d="M3670 1002 c0 -12 30 -114 40 -137 5 -11 14 -37 20 -57 10 -34 15
-38 45 -38 35 0 41 8 66 98 12 42 13 43 25 20 7 -13 18 -44 24 -70 12 -47 13
-48 51 -48 26 0 39 4 39 14 0 7 16 60 35 117 19 57 35 105 35 107 0 1 -13 2
-28 2 -26 0 -30 -6 -52 -67 -12 -38 -26 -71 -29 -75 -7 -8 -22 29 -41 100 -9
37 -14 42 -39 42 -25 0 -31 -6 -50 -56 -11 -31 -21 -62 -21 -69 0 -8 -4 -16
-9 -19 -5 -3 -19 28 -32 69 -21 70 -24 75 -51 75 -15 0 -28 -4 -28 -8z"/>
<path d="M712 878 c-15 -15 -15 -61 0 -76 30 -30 98 -1 98 42 0 13 -6 17 -20
13 -11 -3 -18 -1 -15 3 5 9 -25 30 -42 30 -5 0 -14 -5 -21 -12z"/>
<path d="M482 844 c-22 -33 -25 -35 -41 -20 -16 15 -20 11 -61 -62 -24 -42
-51 -88 -60 -102 -9 -14 -31 -51 -48 -83 -36 -66 -33 -70 43 -65 l48 3 44 85
c73 138 95 172 103 163 5 -4 27 -43 50 -85 23 -43 47 -78 54 -78 14 0 45 30
44 43 0 5 4 12 8 15 4 4 4 1 0 -5 -8 -15 10 -18 18 -4 3 5 -1 12 -10 15 -8 3
-12 12 -9 18 4 7 0 5 -8 -5 -14 -17 -17 -15 -50 35 -19 29 -49 79 -66 111 -18
31 -33 57 -34 57 -1 0 -12 -16 -25 -36z"/>
<path d="M1063 835 c0 -8 4 -15 9 -15 5 0 6 -6 2 -12 -5 -10 -4 -10 7 0 11 10
11 15 -2 28 -14 13 -16 13 -16 -1z"/>
<path d="M985 767 c-22 -18 -48 -42 -58 -54 -10 -13 -25 -23 -32 -23 -8 0 -18
-7 -23 -15 -11 -21 -53 -29 -45 -9 4 10 -14 3 -48 -17 -30 -18 -56 -36 -59
-39 -19 -24 -221 -114 -289 -129 -223 -48 -361 41 -361 230 0 76 -20 28 -27
-62 -5 -73 -3 -91 17 -137 13 -31 39 -66 62 -85 l39 -33 -15 -34 c-8 -19 -24
-48 -36 -65 -11 -16 -20 -33 -20 -37 0 -5 28 -8 63 -8 l62 0 30 58 30 57 77 7
c90 8 208 45 298 95 77 42 185 112 222 145 14 13 53 47 87 76 34 30 58 59 54
65 -3 5 -1 7 5 3 6 -3 13 -2 16 3 4 5 2 12 -4 16 -6 4 -8 11 -5 16 10 14 3 10
-40 -24z"/>
<path d="M1050 705 c-10 -12 -9 -20 6 -41 11 -15 27 -38 36 -52 9 -14 20 -28
25 -31 5 -3 24 -26 43 -51 19 -25 74 -96 124 -157 l89 -113 58 0 59 0 -1 113
c-1 63 -4 97 -8 78 -3 -19 -12 -36 -20 -39 -8 -3 -11 0 -8 5 7 12 -27 46 -48
49 -9 1 -15 -6 -15 -16 0 -29 -17 -33 -34 -8 -11 15 -16 18 -16 8 -1 -13 -2
-13 -13 0 -7 8 -16 15 -22 15 -11 0 -119 114 -185 198 -25 31 -48 56 -51 57
-4 0 -12 -7 -19 -15z"/>
<path d="M954 619 c-10 -12 -31 -27 -46 -35 -28 -15 -28 -15 -28 -125 0 -127
-8 -132 -55 -34 -14 30 -29 57 -35 60 -10 6 -90 -40 -90 -53 0 -4 21 -45 48
-92 l47 -85 93 -3 92 -3 0 196 c0 107 -2 195 -3 195 -2 0 -12 -9 -23 -21z"/>
<path d="M2420 420 c0 -144 2 -170 15 -170 13 0 15 26 15 170 0 144 -2 170
-15 170 -13 0 -15 -26 -15 -170z"/>
<path d="M3245 580 c-4 -7 -3 -16 3 -22 14 -14 45 -2 40 15 -6 16 -34 21 -43
7z"/>
<path d="M1754 573 c-12 -2 -34 -17 -49 -33 -23 -24 -26 -34 -21 -64 8 -40 19
-48 108 -77 73 -23 88 -34 88 -65 0 -48 -92 -72 -150 -39 -34 19 -52 19 -48
-2 6 -34 114 -54 177 -32 37 13 51 35 51 82 0 44 -21 62 -92 81 -82 21 -98 32
-98 65 0 16 7 35 16 42 18 15 81 17 132 5 44 -12 43 11 -3 30 -33 14 -67 16
-111 7z"/>
<path d="M2998 523 c-2 -20 -9 -29 -25 -31 -13 -2 -23 -7 -23 -12 0 -5 10 -10
23 -12 21 -3 22 -8 25 -93 2 -77 5 -92 23 -107 21 -18 55 -23 83 -12 24 9 8
32 -20 26 -43 -8 -54 12 -54 104 l0 84 35 0 c19 0 35 5 35 10 0 6 -15 10 -34
10 -30 0 -35 4 -38 27 -4 36 -26 41 -30 6z"/>
<path d="M1260 531 c0 -6 5 -13 10 -16 6 -3 10 1 10 9 0 9 -4 16 -10 16 -5 0
-10 -4 -10 -9z"/>
<path d="M2072 460 c-71 -70 -34 -187 63 -206 81 -15 145 40 145 125 0 36 -6
49 -34 77 -30 30 -40 34 -89 34 -48 0 -59 -4 -85 -30z m149 -21 c40 -42 40
-90 0 -130 -62 -61 -151 -23 -151 65 0 37 5 48 31 70 42 36 83 34 120 -5z"/>
<path d="M2610 405 c0 -46 5 -95 11 -108 21 -45 88 -60 143 -32 35 18 36 18
36 0 0 -8 7 -15 15 -15 13 0 15 20 15 120 0 113 -1 120 -20 120 -18 0 -20 -7
-20 -83 0 -74 -3 -86 -23 -105 -31 -29 -77 -29 -105 1 -19 20 -22 35 -22 105
0 66 -3 82 -15 82 -12 0 -15 -16 -15 -85z"/>
<path d="M3250 370 c0 -100 3 -120 15 -120 13 0 15 20 15 120 0 100 -2 120
-15 120 -12 0 -15 -20 -15 -120z"/>
<path d="M3474 479 c-31 -16 -54 -62 -54 -111 0 -34 6 -50 29 -75 111 -121
290 33 188 161 -21 26 -32 30 -83 33 -32 1 -68 -2 -80 -8z m125 -35 c65 -54
28 -164 -55 -164 -20 0 -44 9 -61 24 -23 20 -28 32 -28 71 0 39 5 51 28 71 37
31 78 31 116 -2z"/>
<path d="M3800 370 c0 -100 3 -120 15 -120 8 0 15 3 16 8 0 4 2 43 4 87 4 71
7 82 30 103 34 28 76 28 103 -1 17 -18 22 -37 24 -107 3 -71 6 -85 21 -88 15
-3 17 6 17 81 0 71 -4 89 -23 118 -19 29 -29 34 -66 37 -24 2 -57 -2 -74 -9
-24 -10 -32 -10 -35 -1 -2 7 -10 12 -18 12 -11 0 -14 -23 -14 -120z"/>
<path d="M1730 127 c0 -7 9 -18 20 -25 20 -12 21 -12 4 13 -18 28 -24 31 -24
12z"/>
<path d="M1851 95 c2 -46 2 -47 8 -15 l6 35 24 -32 c14 -18 28 -33 33 -33 4 0
7 21 6 48 -1 36 -2 39 -5 15 -2 -18 -8 -33 -13 -33 -5 0 -20 15 -34 33 l-26
32 1 -50z"/>
<path d="M1990 136 c0 -2 11 -6 25 -8 13 -3 22 -1 19 3 -5 9 -44 13 -44 5z"/>
<path d="M2217 134 c-3 -4 0 -13 8 -21 22 -22 18 -36 -9 -31 -23 5 -45 -17
-31 -30 3 -3 5 0 5 7 0 9 11 12 34 9 33 -4 33 -4 23 27 -12 35 -21 48 -30 39z"/>
<path d="M2313 95 c0 -27 2 -38 4 -22 2 15 2 37 0 50 -2 12 -4 0 -4 -28z"/>
<path d="M2380 93 c0 -25 2 -44 5 -41 9 8 12 88 3 88 -4 0 -8 -21 -8 -47z"/>
<path d="M2738 133 c7 -3 12 -22 12 -46 0 -31 3 -38 10 -27 5 8 10 27 10 42 0
14 6 29 13 31 6 3 -4 5 -23 5 -19 0 -29 -2 -22 -5z"/>
<path d="M2929 123 c-13 -16 -12 -17 4 -4 16 13 21 21 13 21 -2 0 -10 -8 -17
-17z"/>
<path d="M3040 105 c0 -45 7 -45 12 0 2 19 0 35 -4 35 -4 0 -8 -16 -8 -35z"/>
<path d="M3176 131 c-3 -5 1 -11 9 -14 9 -4 12 -1 8 9 -6 16 -10 17 -17 5z"/>
<path d="M3252 133 c12 -3 18 -17 21 -46 l4 -42 1 42 c2 30 7 43 20 46 9 3 -1
5 -23 5 -22 0 -32 -2 -23 -5z"/>
<path d="M3340 110 c0 -16 2 -30 4 -30 2 0 6 13 8 30 3 16 1 30 -4 30 -4 0 -8
-13 -8 -30z"/>
<path d="M3537 133 c-3 -5 10 -8 28 -8 18 0 31 3 28 8 -2 4 -15 7 -28 7 -13 0
-26 -3 -28 -7z"/>
<path d="M3641 93 c1 -53 6 -49 11 10 2 20 0 37 -4 37 -4 0 -8 -21 -7 -47z"/>
<path d="M3692 126 c7 -8 15 -12 17 -11 5 6 -10 25 -20 25 -5 0 -4 -6 3 -14z"/>
<path d="M3756 131 c-3 -4 6 -6 19 -3 14 2 32 -1 40 -8 13 -11 14 -10 9 4 -6
17 -59 23 -68 7z"/>
<path d="M3920 131 c0 -5 5 -13 10 -16 6 -3 10 -2 10 4 0 5 -4 13 -10 16 -5 3
-10 2 -10 -4z"/>
<path d="M1964 116 c-3 -8 -4 -23 -2 -33 3 -11 6 -6 9 15 6 34 2 42 -7 18z"/>
<path d="M2620 127 c0 -2 16 -21 35 -41 19 -21 35 -31 34 -24 0 12 -69 77 -69
65z"/>
<path d="M2831 94 c0 -11 3 -14 6 -6 3 7 2 16 -1 19 -3 4 -6 -2 -5 -13z"/>
<path d="M3150 78 c0 -4 14 -8 30 -8 17 0 30 -5 30 -12 0 -6 3 -9 6 -5 3 3 2
11 -3 19 -9 14 -63 19 -63 6z"/>
<path d="M3592 70 c0 -14 2 -19 5 -12 2 6 2 18 0 25 -3 6 -5 1 -5 -13z"/>
<path d="M3740 83 c0 -6 8 -17 18 -24 16 -13 16 -13 2 6 -8 11 -16 22 -17 24
-2 2 -3 0 -3 -6z"/>
<path d="M1780 71 c0 -5 5 -13 10 -16 6 -3 10 -2 10 4 0 5 -4 13 -10 16 -5 3
-10 2 -10 -4z"/>
<path d="M2100 71 c0 -10 19 -25 25 -20 1 2 -3 10 -11 17 -8 7 -14 8 -14 3z"/>
<path d="M3810 60 c-9 -6 -10 -10 -3 -10 6 0 15 5 18 10 8 12 4 12 -15 0z"/>
<path d="M3885 60 c3 -5 8 -10 11 -10 2 0 4 5 4 10 0 6 -5 10 -11 10 -5 0 -7
-4 -4 -10z"/>
<path d="M3950 60 c0 -5 5 -10 10 -10 6 0 10 5 10 10 0 6 -4 10 -10 10 -5 0
-10 -4 -10 -10z"/>
</g>
</svg>
